<svg xmlns="http://www.w3.org/2000/svg" width="14" height="14" viewBox="0 0 14 14" xmlns:xlink="http://www.w3.org/1999/xlink">
  <defs>
    <path id="a" d="M13,4.41421356 L6.70710678,10.7071068 L5.29289322,9.29289322 L11.5857864,3 L9,3 L9,1 L13,1 L15,1 L15,7 L13,7 L13,4.41421356 Z M13,13 L13,9.05 L15,9.05 L15,14 C15,14.5522847 14.5522847,15 14,15 L2,15 C1.44771525,15 1,14.5522847 1,14 L1,2 C1,1.44771525 1.44771525,1 2,1 L7,1 L7,3 L3,3 L3,13 L13,13 Z"/>
  </defs>
  <g fill="none" fill-rule="evenodd" transform="translate(-1 -1)">
    <mask id="b" fill="white">
      <use xlink:href="#a"/>
    </mask>
    <use fill="#545B64" fill-rule="nonzero" xlink:href="#a"/>
    <rect width="16" height="16" fill="#0073BB" mask="url(#b)"/>
    <rect width="16" height="16" fill="#50E3C2" opacity="0"/>
  </g>
</svg>
