<?xml version="1.0" encoding="UTF-8"?>
<svg width="145px" height="298px" viewBox="0 0 145 298" version="1.1" xmlns="http://www.w3.org/2000/svg" xmlns:xlink="http://www.w3.org/1999/xlink">
    <!-- Generator: Sketch 52.6 (67491) - http://www.bohemiancoding.com/sketch -->
    <title>Group 4</title>
    <desc>Created with Sketch.</desc>
    <g id="Device-UI---all-flows" stroke="none" stroke-width="1" fill="none" fill-rule="evenodd">
        <g id="Artboard" transform="translate(-1039.000000, -21.000000)">
            <g id="Group-4" transform="translate(1038.000000, 13.000000)">
                <g id="Group-5" transform="translate(73.000000, 141.000000) scale(-1, 1) translate(-73.000000, -141.000000) " stroke-width="2">
                    <g id="Group-9" transform="translate(0.000000, 99.000000)">
                        <path d="M110.441296,37.5384615 L102.546137,39.7379808" id="Path-16" stroke="#232F3E" transform="translate(106.493716, 38.638221) scale(-1, 1) translate(-106.493716, -38.638221) "></path>
                        <path d="M113.97737,45.75 L103.369149,45.75" id="Path-16" stroke="#232F3E" transform="translate(108.439593, 45.750000) scale(-1, 1) translate(-108.439593, -45.750000) "></path>
                        <path d="M42.4328842,44.8701923 L35.0050575,44.8701923" id="Path-16" stroke="#232F3E" transform="translate(38.307465, 45.163462) scale(-1, 1) translate(-38.307465, -45.163462) "></path>
                        <polyline id="Path-15" stroke="#232F3E" fill="#FFFFFF" stroke-linejoin="round" transform="translate(93.782786, 165.897879) scale(-1, 1) translate(-93.782786, -165.897879) " points="99.1637304 173.430373 88.4018421 173.430373 88.4018421 165.274968 99.1637304 158.365385"></polyline>
                        <polyline id="Path-15" stroke="#232F3E" fill="#FFFFFF" stroke-linejoin="round" points="56.7308462 173.430373 45.9689579 173.430373 45.9689579 165.274968 56.7308462 158.365385"></polyline>
                        <path d="M40.8985137,37.5384615 L33.0033544,39.7379808" id="Path-16" stroke="#232F3E"></path>
                        <path d="M33.0033544,150.153846 L111.329919,150.153846 L111.329919,162.291297 C94.008555,158.24548 80.9541276,156.222572 72.1666366,156.222572 C63.3791456,156.222572 50.3247182,158.24548 33.0033544,162.291297" id="Path-17" stroke="#232F3E" fill="#FFFFFF" stroke-linejoin="round"></path>
                        <polygon id="Rectangle-5" stroke="#232F3E" fill="#FFFFFF" stroke-linejoin="round" points="56.5771789 148.980769 88.4018421 148.980769 88.4018421 183 56.5771789 183"></polygon>
                        <path d="M10.1547033,19.7660994 C13.3721196,19.3137077 16.4558318,19.0875118 19.4058399,19.0875118 C22.3558511,19.0875118 25.4395667,19.3137081 28.6569867,19.7661008 L28.6569854,19.7661103 C31.1251426,20.1131512 32.960789,22.2249599 32.960789,24.7173958 L32.9607969,62.1097045 C32.9607969,64.599152 31.1294383,66.7093881 28.6647905,67.0599025 C25.9620875,67.4442723 23.0307808,67.6364573 19.8708704,67.6364573 C16.5232168,67.6364573 13.2884206,67.4207569 10.166482,66.9893562 L10.1664812,66.9893619 C7.69302357,66.6475706 5.85089079,64.533381 5.85089079,62.0364201 L5.85089092,24.7173943 C5.85089092,22.2249534 7.68654121,20.1131407 10.1547033,19.7660994 Z" id="Rectangle-6" stroke="#527FFF" fill="#FFFFFF" stroke-linejoin="round" transform="translate(19.405844, 43.361985) rotate(-15.000000) translate(-19.405844, -43.361985) "></path>
                        <g id="Group-2" transform="translate(20.159096, 44.449395) rotate(-15.000000) translate(-20.159096, -44.449395) translate(6.159096, 22.449395)" stroke="#527FFF" stroke-dasharray="4" stroke-linecap="round">
                            <path d="M0.589345614,7.625 L11.1975667,0.586538462" id="Line-6"></path>
                            <path d="M15.9123316,12.3173077 L26.5205526,5.27884615" id="Line-6" transform="translate(21.216442, 8.798077) scale(-1, 1) translate(-21.216442, -8.798077) "></path>
                            <path d="M0.589345614,17.0096154 L11.1975667,9.97115385" id="Line-6"></path>
                            <path d="M15.9123316,21.7019231 L26.5205526,14.6634615" id="Line-6" transform="translate(21.216442, 18.182692) scale(-1, 1) translate(-21.216442, -18.182692) "></path>
                            <path d="M0.589345614,26.3942308 L11.1975667,19.3557692" id="Line-6"></path>
                            <path d="M15.9123316,31.0865385 L26.5205526,24.0480769" id="Line-6" transform="translate(21.216442, 27.567308) scale(-1, 1) translate(-21.216442, -27.567308) "></path>
                            <path d="M0.589345614,38.125 L11.1975667,31.0865385" id="Line-6"></path>
                            <path d="M7.07214736,43.4038462 L11.1975667,40.4711538" id="Line-6"></path>
                            <path d="M22.3951333,3.51923077 L26.5205526,0.586538462" id="Line-6" transform="translate(24.752516, 1.759615) scale(-1, 1) translate(-24.752516, -1.759615) "></path>
                            <path d="M15.322986,42.2307692 L25.3418614,35.7788462" id="Line-6" transform="translate(20.627096, 38.711538) scale(-1, 1) translate(-20.627096, -38.711538) "></path>
                        </g>
                        <path d="M116.236914,19.7660994 C119.45433,19.3137077 122.538042,19.0875118 125.48805,19.0875118 C128.438062,19.0875118 131.521777,19.3137081 134.739197,19.7661008 L134.739196,19.7661103 C137.207353,20.1131512 139.042999,22.2249599 139.042999,24.7173958 L139.043007,62.1097045 C139.043007,64.599152 137.211649,66.7093881 134.747001,67.0599025 C132.044298,67.4442723 129.112991,67.6364573 125.953081,67.6364573 C122.605427,67.6364573 119.370631,67.4207569 116.248692,66.9893562 L116.248692,66.9893619 C113.775234,66.6475706 111.933101,64.533381 111.933101,62.0364201 L111.933101,24.7173943 C111.933101,22.2249534 113.768752,20.1131407 116.236914,19.7660994 Z" id="Rectangle-6" stroke="#527FFF" fill="#FFFFFF" stroke-linejoin="round" transform="translate(125.488054, 43.361985) rotate(-15.000000) translate(-125.488054, -43.361985) "></path>
                        <g id="Group-2" transform="translate(126.241307, 44.449395) rotate(-15.000000) translate(-126.241307, -44.449395) translate(112.241307, 22.449395)" stroke="#527FFF" stroke-dasharray="4" stroke-linecap="round">
                            <path d="M0.589345614,7.625 L11.1975667,0.586538462" id="Line-6"></path>
                            <path d="M15.9123316,12.3173077 L26.5205526,5.27884615" id="Line-6" transform="translate(21.216442, 8.798077) scale(-1, 1) translate(-21.216442, -8.798077) "></path>
                            <path d="M0.589345614,17.0096154 L11.1975667,9.97115385" id="Line-6"></path>
                            <path d="M15.9123316,21.7019231 L26.5205526,14.6634615" id="Line-6" transform="translate(21.216442, 18.182692) scale(-1, 1) translate(-21.216442, -18.182692) "></path>
                            <path d="M0.589345614,26.3942308 L11.1975667,19.3557692" id="Line-6"></path>
                            <path d="M15.9123316,31.0865385 L26.5205526,24.0480769" id="Line-6" transform="translate(21.216442, 27.567308) scale(-1, 1) translate(-21.216442, -27.567308) "></path>
                            <path d="M0.589345614,38.125 L11.1975667,31.0865385" id="Line-6"></path>
                            <path d="M7.07214736,43.4038462 L11.1975667,40.4711538" id="Line-6"></path>
                            <path d="M22.3951333,3.51923077 L26.5205526,0.586538462" id="Line-6" transform="translate(24.752516, 1.759615) scale(-1, 1) translate(-24.752516, -1.759615) "></path>
                            <path d="M15.322986,42.2307692 L25.3418614,35.7788462" id="Line-6" transform="translate(20.627096, 38.711538) scale(-1, 1) translate(-20.627096, -38.711538) "></path>
                        </g>
                        <g id="Group-7" transform="translate(111.975667, 132.557692)" stroke="#232F3E">
                            <path d="M4.30381251,0.678587629 C7.52122883,0.226195876 10.604941,6.28372263e-16 13.5549491,0 C16.5049603,0 19.5886759,0.226196356 22.806096,0.678589068 L22.8060946,0.678598525 C25.2742518,1.02563941 27.1098982,3.13744808 27.1098982,5.62988405 L27.1099061,43.0221927 C27.1099061,45.5116402 25.2785475,47.6218763 22.8138997,47.9723907 C20.1111967,48.3567606 17.17989,48.5489455 14.0199796,48.5489455 C10.672326,48.5489455 7.43752984,48.3332452 4.31559122,47.9018445 L4.31559043,47.9018501 C1.84213278,47.5600589 -1.11282934e-12,45.4458692 -1.11313513e-12,42.9489083 L1.33030477e-07,5.62988258 C1.33030477e-07,3.13744165 1.83565041,1.02562888 4.30381251,0.678587629 Z" id="Rectangle-6" fill="#FFFFFF" stroke-linejoin="round"></path>
                            <g id="Group-2" transform="translate(0.000000, 3.519231)" stroke-dasharray="4" stroke-linecap="round">
                                <path d="M0.589345614,7.625 L11.1975667,0.586538462" id="Line-6"></path>
                                <path d="M15.9123316,12.3173077 L26.5205526,5.27884615" id="Line-6" transform="translate(21.216442, 8.798077) scale(-1, 1) translate(-21.216442, -8.798077) "></path>
                                <path d="M0.589345614,17.0096154 L11.1975667,9.97115385" id="Line-6"></path>
                                <path d="M15.9123316,21.7019231 L26.5205526,14.6634615" id="Line-6" transform="translate(21.216442, 18.182692) scale(-1, 1) translate(-21.216442, -18.182692) "></path>
                                <path d="M0.589345614,26.3942308 L11.1975667,19.3557692" id="Line-6"></path>
                                <path d="M15.9123316,31.0865385 L26.5205526,24.0480769" id="Line-6" transform="translate(21.216442, 27.567308) scale(-1, 1) translate(-21.216442, -27.567308) "></path>
                                <path d="M0.589345614,38.125 L11.1975667,31.0865385" id="Line-6"></path>
                                <path d="M7.07214736,43.4038462 L11.1975667,40.4711538" id="Line-6"></path>
                                <path d="M22.3951333,3.51923077 L26.5205526,0.586538462" id="Line-6" transform="translate(24.752516, 1.759615) scale(-1, 1) translate(-24.752516, -1.759615) "></path>
                                <path d="M15.322986,42.2307692 L25.3418614,35.7788462" id="Line-6" transform="translate(20.627096, 38.711538) scale(-1, 1) translate(-20.627096, -38.711538) "></path>
                            </g>
                        </g>
                        <polygon id="Rectangle-5" stroke="#232F3E" fill="#FFFFFF" stroke-linejoin="round" points="41.254193 16.4230769 103.724828 16.4230769 103.724828 48.0961538 41.254193 48.0961538"></polygon>
                        <polygon id="Rectangle-5" stroke="#232F3E" fill="#FFFFFF" stroke-linejoin="round" points="37.7181193 48.0961538 107.260902 48.0961538 107.260902 157.192308 37.7181193 157.192308"></polygon>
                        <polygon id="Rectangle-5" stroke="#232F3E" fill="#FFFFFF" stroke-linejoin="round" points="45.9689579 56.3076923 99.0100631 56.3076923 99.0100631 130.211538 45.9689579 130.211538"></polygon>
                        <polygon id="Rectangle-5" stroke="#232F3E" fill="#FFFFFF" stroke-linejoin="round" points="30.6459719 56.3076923 41.254193 56.3076923 41.254193 87.9807692 30.6459719 87.9807692"></polygon>
                        <polygon id="Rectangle-5" stroke="#232F3E" fill="#FFFFFF" stroke-linejoin="round" points="35.3607368 87.9807692 45.9689579 87.9807692 45.9689579 127.865385 35.3607368 127.865385"></polygon>
                        <polygon id="Rectangle-5" stroke="#232F3E" fill="#FFFFFF" stroke-linejoin="round" points="99.0100631 87.9807692 109.618284 87.9807692 109.618284 127.865385 99.0100631 127.865385"></polygon>
                        <g id="Group-13" transform="translate(42.500000, 126.000000) scale(-1, 1) translate(-42.500000, -126.000000) translate(23.000000, 114.000000)" stroke="#232F3E">
                            <polygon id="Rectangle-5" fill="#FFFFFF" stroke-linejoin="round" points="27.6182842 0.134615385 38.2265052 0.134615385 38.2265052 6 27.6182842 6"></polygon>
                            <polygon id="Rectangle-5" fill="#FFFFFF" stroke-linejoin="round" transform="translate(4.044460, 19.313392) rotate(-270.000000) translate(-4.044460, -19.313392) " points="0.0968799525 15.7941613 7.99203926 15.7941613 7.99203926 22.8326228 0.0968799525 22.8326228"></polygon>
                            <path d="M7.58053329,18.9038462 L25.6904315,18.9038462 C30.6609943,18.9038462 34.6904315,14.8744089 34.6904315,9.90384615 L34.6904315,6" id="Path-14"></path>
                        </g>
                        <polygon id="Rectangle-5" stroke="#232F3E" fill="#FFFFFF" stroke-linejoin="round" points="103.724828 56.3076923 114.333049 56.3076923 114.333049 87.9807692 103.724828 87.9807692"></polygon>
                        <polygon id="Rectangle-5" stroke="#232F3E" fill="#FFFFFF" stroke-linejoin="round" transform="translate(38.307465, 23.461538) scale(-1, 1) translate(-38.307465, -23.461538) " points="35.3607368 18.7692308 41.254193 18.7692308 41.254193 26.1387658 35.3607368 28.1538462"></polygon>
                        <polygon id="Rectangle-5" stroke="#232F3E" fill="#FFFFFF" stroke-linejoin="round" transform="translate(106.671556, 23.461538) scale(-1, 1) translate(-106.671556, -23.461538) " points="103.724828 18.7692308 109.618284 18.7692308 109.618284 28.1538462 103.724828 24.8860708"></polygon>
                        <path d="M59.7558701,0 L85.2231508,0 C86.3277203,-2.16501571e-15 87.2231508,0.8954305 87.2231508,2 L87.2231508,37.2980769 C87.2231508,38.4026464 86.3277203,39.2980769 85.2231508,39.2980769 L59.7558701,39.2980769 C58.6513006,39.2980769 57.7558701,38.4026464 57.7558701,37.2980769 L57.7558701,2 C57.7558701,0.8954305 58.6513006,2.02906125e-16 59.7558701,0 Z" id="Rectangle" stroke="#232F3E" fill="#FFFFFF" stroke-linejoin="round" transform="translate(72.489510, 19.649038) rotate(-360.000000) translate(-72.489510, -19.649038) "></path>
                        <path d="M57.7558701,30.5 L87.0312106,30.5" id="Path-12" stroke="#232F3E"></path>
                        <g id="Group-7" transform="translate(5.893456, 132.557692)" stroke="#232F3E">
                            <path d="M4.30381251,0.678587629 C7.52122883,0.226195876 10.604941,6.28372263e-16 13.5549491,0 C16.5049603,0 19.5886759,0.226196356 22.806096,0.678589068 L22.8060946,0.678598525 C25.2742518,1.02563941 27.1098982,3.13744808 27.1098982,5.62988405 L27.1099061,43.0221927 C27.1099061,45.5116402 25.2785475,47.6218763 22.8138997,47.9723907 C20.1111967,48.3567606 17.17989,48.5489455 14.0199796,48.5489455 C10.672326,48.5489455 7.43752984,48.3332452 4.31559122,47.9018445 L4.31559043,47.9018501 C1.84213278,47.5600589 -9.93732146e-13,45.4458692 -9.94037935e-13,42.9489083 L1.33030595e-07,5.62988258 C1.33030595e-07,3.13744165 1.83565041,1.02562888 4.30381251,0.678587629 Z" id="Rectangle-6" fill="#FFFFFF" stroke-linejoin="round"></path>
                            <g id="Group-2" transform="translate(0.000000, 3.519231)" stroke-dasharray="4" stroke-linecap="round">
                                <path d="M0.589345614,7.625 L11.1975667,0.586538462" id="Line-6"></path>
                                <path d="M15.9123316,12.3173077 L26.5205526,5.27884615" id="Line-6" transform="translate(21.216442, 8.798077) scale(-1, 1) translate(-21.216442, -8.798077) "></path>
                                <path d="M0.589345614,17.0096154 L11.1975667,9.97115385" id="Line-6"></path>
                                <path d="M15.9123316,21.7019231 L26.5205526,14.6634615" id="Line-6" transform="translate(21.216442, 18.182692) scale(-1, 1) translate(-21.216442, -18.182692) "></path>
                                <path d="M0.589345614,26.3942308 L11.1975667,19.3557692" id="Line-6"></path>
                                <path d="M15.9123316,31.0865385 L26.5205526,24.0480769" id="Line-6" transform="translate(21.216442, 27.567308) scale(-1, 1) translate(-21.216442, -27.567308) "></path>
                                <path d="M0.589345614,38.125 L11.1975667,31.0865385" id="Line-6"></path>
                                <path d="M7.07214736,43.4038462 L11.1975667,40.4711538" id="Line-6"></path>
                                <path d="M22.3951333,3.51923077 L26.5205526,0.586538462" id="Line-6" transform="translate(24.752516, 1.759615) scale(-1, 1) translate(-24.752516, -1.759615) "></path>
                                <path d="M15.322986,42.2307692 L25.3418614,35.7788462" id="Line-6" transform="translate(20.627096, 38.711538) scale(-1, 1) translate(-20.627096, -38.711538) "></path>
                            </g>
                        </g>
                    </g>
                    <g id="Group-14" transform="translate(44.263333, 38.373450) rotate(-23.000000) translate(-44.263333, -38.373450) translate(20.263333, 6.873450)" stroke="#527FFF" stroke-linejoin="round">
                        <g id="Group" transform="translate(0.439340, 0.625631)">
                            <polyline id="Shape" points="0.125373821 23.5945946 24.6857603 0.387387387 24.6857603 61.7351351"></polyline>
                            <path d="M46.8500115,23.5945946 L24.6857603,0.387387387" id="Shape"></path>
                        </g>
                    </g>
                </g>
                <path d="M58.176,85 L58.176,75.298 L63.93,75.298 L63.93,76.446 L59.604,76.446 L59.604,79.568 L63.174,79.568 L63.174,80.716 L59.604,80.716 L59.604,85 L58.176,85 Z M65.232,85 L65.232,77.902 L66.394,77.902 L66.548,78.952 C66.8093346,78.6719986 67.0519989,78.4550008 67.276,78.301 C67.5000011,78.1469992 67.7286655,78.032667 67.962,77.958 C68.1953345,77.883333 68.447332,77.846 68.718,77.846 C68.8953342,77.846 69.0866656,77.8599999 69.292,77.888 L69.292,79.148 C68.9933318,79.1106665 68.7413344,79.092 68.536,79.092 C67.7893296,79.092 67.1500027,79.3159978 66.618,79.764 L66.618,85 L65.232,85 Z M73.408,85.21 C72.3439947,85.21 71.5133363,84.87867 70.916,84.216 C70.3186637,83.55333 70.02,82.6293393 70.02,81.444 C70.02,80.2679941 70.3186637,79.34867 70.916,78.686 C71.5133363,78.02333 72.3439947,77.692 73.408,77.692 C74.4720053,77.692 75.3026637,78.02333 75.9,78.686 C76.4973363,79.34867 76.796,80.2679941 76.796,81.444 C76.796,82.6293393 76.4973363,83.55333 75.9,84.216 C75.3026637,84.87867 74.4720053,85.21 73.408,85.21 Z M73.408,84.09 C74.7240066,84.09 75.382,83.2080088 75.382,81.444 C75.382,79.6893246 74.7240066,78.812 73.408,78.812 C72.0919934,78.812 71.434,79.6893246 71.434,81.444 C71.434,83.2080088 72.0919934,84.09 73.408,84.09 Z M83.376,85 L83.376,80.254 C83.376,79.7593309 83.2756677,79.3953345 83.075,79.162 C82.8743323,78.9286655 82.5593355,78.812 82.13,78.812 C81.392663,78.812 80.6693369,79.0499976 79.96,79.526 L79.96,85 L78.574,85 L78.574,77.902 L79.736,77.902 L79.876,78.686 C80.7626711,78.02333 81.6959951,77.692 82.676,77.692 C83.3573367,77.692 83.8753316,77.8716649 84.23,78.231 C84.5846684,78.5903351 84.762,79.1106633 84.762,79.792 L84.762,85 L83.376,85 Z M90.866,84.832 C90.4086644,85.0093342 89.8906696,85.098 89.312,85.098 C87.98666,85.098 87.324,84.43534 87.324,83.11 L87.324,78.994 L86.036,78.994 L86.036,78.098 L87.366,77.93 L87.576,75.914 L88.71,75.914 L88.71,77.902 L90.81,77.902 L90.81,78.994 L88.71,78.994 L88.71,83.04 C88.71,83.3853351 88.7869992,83.6279993 88.941,83.768 C89.0950008,83.9080007 89.3586648,83.978 89.732,83.978 C90.1146686,83.978 90.4926648,83.9313338 90.866,83.838 L90.866,84.832 Z" id="Front" fill="#16191F"></path>
                <path d="M61.176,305 L61.176,295.298 L64.382,295.298 C65.2873379,295.298 66.0153306,295.531331 66.566,295.998 C67.1166694,296.464669 67.392,297.085329 67.392,297.86 C67.392,298.345336 67.2800011,298.762998 67.056,299.113 C66.8319989,299.463002 66.5100021,299.731332 66.09,299.918 C66.6873363,300.095334 67.1446651,300.386998 67.462,300.793 C67.7793349,301.199002 67.938,301.700664 67.938,302.298 C67.938,303.119337 67.6486696,303.774998 67.07,304.265 C66.4913304,304.755002 65.7166715,305 64.746,305 L61.176,305 Z M62.534,300.576 L62.534,303.908 L64.718,303.908 C65.9033393,303.908 66.496,303.352672 66.496,302.242 C66.496,301.691331 66.3443348,301.276001 66.041,300.996 C65.7376651,300.715999 65.2873363,300.576 64.69,300.576 L62.534,300.576 Z M62.534,296.39 L62.534,299.512 L64.242,299.512 C65.3993391,299.512 65.978,298.994005 65.978,297.958 C65.978,297.444664 65.8356681,297.055001 65.551,296.789 C65.2663319,296.522999 64.8440028,296.39 64.284,296.39 L62.534,296.39 Z M73.86,305 L73.748,304.272 C73.4119983,304.561335 73.041002,304.785333 72.635,304.944 C72.228998,305.102667 71.8253353,305.182 71.424,305.182 C70.76133,305.182 70.2316687,304.993002 69.835,304.615 C69.4383314,304.236998 69.24,303.73067 69.24,303.096 C69.24,302.414663 69.4826642,301.871002 69.968,301.465 C70.4533358,301.058998 71.1066626,300.856 71.928,300.856 C72.469336,300.856 73.0573302,300.935333 73.692,301.094 L73.692,300.17 C73.692,299.665997 73.5776678,299.311334 73.349,299.106 C73.1203322,298.900666 72.7306694,298.798 72.18,298.798 C71.3866627,298.798 70.5653376,298.942665 69.716,299.232 L69.716,298.252 C70.0520017,298.074666 70.4626642,297.937 70.948,297.839 C71.4333358,297.741 71.9233309,297.692 72.418,297.692 C73.3046711,297.692 73.9579979,297.876331 74.378,298.245 C74.7980021,298.613669 75.008,299.175996 75.008,299.932 L75.008,305 L73.86,305 Z M71.76,304.132 C72.3946698,304.132 73.0386634,303.894002 73.692,303.418 L73.692,301.99 C73.2066642,301.868666 72.7120025,301.808 72.208,301.808 C71.1533281,301.808 70.626,302.213996 70.626,303.026 C70.626,303.380668 70.723999,303.653666 70.92,303.845 C71.116001,304.036334 71.3959982,304.132 71.76,304.132 Z M82.05,304.734 C81.508664,305.014001 80.8833369,305.154 80.174,305.154 C79.0726612,305.154 78.2303363,304.839003 77.647,304.209 C77.0636638,303.578997 76.772,302.666673 76.772,301.472 C76.772,300.286661 77.072997,299.36967 77.675,298.721 C78.277003,298.07233 79.1286612,297.748 80.23,297.748 C80.8553365,297.748 81.4433306,297.878665 81.994,298.14 L81.994,299.134 C81.4619973,298.965999 80.9393359,298.882 80.426,298.882 C79.6419961,298.882 79.0773351,299.080331 78.732,299.477 C78.3866649,299.873669 78.214,300.505996 78.214,301.374 L78.214,301.556 C78.214,302.405338 78.3889983,303.028331 78.739,303.425 C79.0890018,303.821669 79.6419962,304.02 80.398,304.02 C80.9020025,304.02 81.4526637,303.926668 82.05,303.74 L82.05,304.734 Z M83.66,305 L83.66,294.64 L85.046,294.64 L85.046,300.996 L88.056,297.902 L89.75,297.902 L86.39,301.276 L89.974,305 L88.224,305 L85.046,301.64 L85.046,305 L83.66,305 Z" id="Back" fill="#16191F"></path>
            </g>
        </g>
    </g>
</svg>