<?xml version="1.0" encoding="UTF-8"?>
<svg width="145px" height="299px" viewBox="0 0 145 299" version="1.1" xmlns="http://www.w3.org/2000/svg" xmlns:xlink="http://www.w3.org/1999/xlink">
    <!-- Generator: Sketch 52.6 (67491) - http://www.bohemiancoding.com/sketch -->
    <title>Group 3</title>
    <desc>Created with Sketch.</desc>
    <g id="Device-UI---all-flows" stroke="none" stroke-width="1" fill="none" fill-rule="evenodd">
        <g id="Artboard" transform="translate(-811.000000, -32.000000)">
            <g id="Group-3" transform="translate(811.000000, 24.000000)">
                <path d="M55.176,86 L55.176,76.298 L60.93,76.298 L60.93,77.446 L56.604,77.446 L56.604,80.568 L60.174,80.568 L60.174,81.716 L56.604,81.716 L56.604,86 L55.176,86 Z M62.232,86 L62.232,78.902 L63.394,78.902 L63.548,79.952 C63.8093346,79.6719986 64.0519989,79.4550008 64.276,79.301 C64.5000011,79.1469992 64.7286655,79.032667 64.962,78.958 C65.1953345,78.883333 65.447332,78.846 65.718,78.846 C65.8953342,78.846 66.0866656,78.8599999 66.292,78.888 L66.292,80.148 C65.9933318,80.1106665 65.7413344,80.092 65.536,80.092 C64.7893296,80.092 64.1500027,80.3159978 63.618,80.764 L63.618,86 L62.232,86 Z M70.408,86.21 C69.3439947,86.21 68.5133363,85.87867 67.916,85.216 C67.3186637,84.55333 67.02,83.6293393 67.02,82.444 C67.02,81.2679941 67.3186637,80.34867 67.916,79.686 C68.5133363,79.02333 69.3439947,78.692 70.408,78.692 C71.4720053,78.692 72.3026637,79.02333 72.9,79.686 C73.4973363,80.34867 73.796,81.2679941 73.796,82.444 C73.796,83.6293393 73.4973363,84.55333 72.9,85.216 C72.3026637,85.87867 71.4720053,86.21 70.408,86.21 Z M70.408,85.09 C71.7240066,85.09 72.382,84.2080088 72.382,82.444 C72.382,80.6893246 71.7240066,79.812 70.408,79.812 C69.0919934,79.812 68.434,80.6893246 68.434,82.444 C68.434,84.2080088 69.0919934,85.09 70.408,85.09 Z M80.376,86 L80.376,81.254 C80.376,80.7593309 80.2756677,80.3953345 80.075,80.162 C79.8743323,79.9286655 79.5593355,79.812 79.13,79.812 C78.392663,79.812 77.6693369,80.0499976 76.96,80.526 L76.96,86 L75.574,86 L75.574,78.902 L76.736,78.902 L76.876,79.686 C77.7626711,79.02333 78.6959951,78.692 79.676,78.692 C80.3573367,78.692 80.8753316,78.8716649 81.23,79.231 C81.5846684,79.5903351 81.762,80.1106633 81.762,80.792 L81.762,86 L80.376,86 Z M87.866,85.832 C87.4086644,86.0093342 86.8906696,86.098 86.312,86.098 C84.98666,86.098 84.324,85.43534 84.324,84.11 L84.324,79.994 L83.036,79.994 L83.036,79.098 L84.366,78.93 L84.576,76.914 L85.71,76.914 L85.71,78.902 L87.81,78.902 L87.81,79.994 L85.71,79.994 L85.71,84.04 C85.71,84.3853351 85.7869992,84.6279993 85.941,84.768 C86.0950008,84.9080007 86.3586648,84.978 86.732,84.978 C87.1146686,84.978 87.4926648,84.9313338 87.866,84.838 L87.866,85.832 Z" id="Front-Copy" fill="#16191F"></path>
                <path d="M61.176,306 L61.176,296.298 L64.382,296.298 C65.2873379,296.298 66.0153306,296.531331 66.566,296.998 C67.1166694,297.464669 67.392,298.085329 67.392,298.86 C67.392,299.345336 67.2800011,299.762998 67.056,300.113 C66.8319989,300.463002 66.5100021,300.731332 66.09,300.918 C66.6873363,301.095334 67.1446651,301.386998 67.462,301.793 C67.7793349,302.199002 67.938,302.700664 67.938,303.298 C67.938,304.119337 67.6486696,304.774998 67.07,305.265 C66.4913304,305.755002 65.7166715,306 64.746,306 L61.176,306 Z M62.534,301.576 L62.534,304.908 L64.718,304.908 C65.9033393,304.908 66.496,304.352672 66.496,303.242 C66.496,302.691331 66.3443348,302.276001 66.041,301.996 C65.7376651,301.715999 65.2873363,301.576 64.69,301.576 L62.534,301.576 Z M62.534,297.39 L62.534,300.512 L64.242,300.512 C65.3993391,300.512 65.978,299.994005 65.978,298.958 C65.978,298.444664 65.8356681,298.055001 65.551,297.789 C65.2663319,297.522999 64.8440028,297.39 64.284,297.39 L62.534,297.39 Z M73.86,306 L73.748,305.272 C73.4119983,305.561335 73.041002,305.785333 72.635,305.944 C72.228998,306.102667 71.8253353,306.182 71.424,306.182 C70.76133,306.182 70.2316687,305.993002 69.835,305.615 C69.4383314,305.236998 69.24,304.73067 69.24,304.096 C69.24,303.414663 69.4826642,302.871002 69.968,302.465 C70.4533358,302.058998 71.1066626,301.856 71.928,301.856 C72.469336,301.856 73.0573302,301.935333 73.692,302.094 L73.692,301.17 C73.692,300.665997 73.5776678,300.311334 73.349,300.106 C73.1203322,299.900666 72.7306694,299.798 72.18,299.798 C71.3866627,299.798 70.5653376,299.942665 69.716,300.232 L69.716,299.252 C70.0520017,299.074666 70.4626642,298.937 70.948,298.839 C71.4333358,298.741 71.9233309,298.692 72.418,298.692 C73.3046711,298.692 73.9579979,298.876331 74.378,299.245 C74.7980021,299.613669 75.008,300.175996 75.008,300.932 L75.008,306 L73.86,306 Z M71.76,305.132 C72.3946698,305.132 73.0386634,304.894002 73.692,304.418 L73.692,302.99 C73.2066642,302.868666 72.7120025,302.808 72.208,302.808 C71.1533281,302.808 70.626,303.213996 70.626,304.026 C70.626,304.380668 70.723999,304.653666 70.92,304.845 C71.116001,305.036334 71.3959982,305.132 71.76,305.132 Z M82.05,305.734 C81.508664,306.014001 80.8833369,306.154 80.174,306.154 C79.0726612,306.154 78.2303363,305.839003 77.647,305.209 C77.0636638,304.578997 76.772,303.666673 76.772,302.472 C76.772,301.286661 77.072997,300.36967 77.675,299.721 C78.277003,299.07233 79.1286612,298.748 80.23,298.748 C80.8553365,298.748 81.4433306,298.878665 81.994,299.14 L81.994,300.134 C81.4619973,299.965999 80.9393359,299.882 80.426,299.882 C79.6419961,299.882 79.0773351,300.080331 78.732,300.477 C78.3866649,300.873669 78.214,301.505996 78.214,302.374 L78.214,302.556 C78.214,303.405338 78.3889983,304.028331 78.739,304.425 C79.0890018,304.821669 79.6419962,305.02 80.398,305.02 C80.9020025,305.02 81.4526637,304.926668 82.05,304.74 L82.05,305.734 Z M83.66,306 L83.66,295.64 L85.046,295.64 L85.046,301.996 L88.056,298.902 L89.75,298.902 L86.39,302.276 L89.974,306 L88.224,306 L85.046,302.64 L85.046,306 L83.66,306 Z" id="Back" fill="#16191F"></path>
                <g id="Group-5" stroke-width="2">
                    <g id="Group-9" transform="translate(0.000000, 95.000000)">
                        <path d="M110.441296,37.5384615 L102.546137,39.7379808" id="Path-16" stroke="#232F3E" transform="translate(106.493716, 38.638221) scale(-1, 1) translate(-106.493716, -38.638221) "></path>
                        <path d="M113.97737,45.75 L103.369149,45.75" id="Path-16" stroke="#232F3E" transform="translate(108.439593, 45.750000) scale(-1, 1) translate(-108.439593, -45.750000) "></path>
                        <path d="M42.4328842,44.8701923 L35.0050575,44.8701923" id="Path-16" stroke="#232F3E" transform="translate(38.307465, 45.163462) scale(-1, 1) translate(-38.307465, -45.163462) "></path>
                        <polyline id="Path-15" stroke="#232F3E" fill="#FFFFFF" stroke-linejoin="round" transform="translate(93.782786, 165.897879) scale(-1, 1) translate(-93.782786, -165.897879) " points="99.1637304 173.430373 88.4018421 173.430373 88.4018421 165.274968 99.1637304 158.365385"></polyline>
                        <polyline id="Path-15" stroke="#232F3E" fill="#FFFFFF" stroke-linejoin="round" points="56.7308462 173.430373 45.9689579 173.430373 45.9689579 165.274968 56.7308462 158.365385"></polyline>
                        <path d="M40.8985137,37.5384615 L33.0033544,39.7379808" id="Path-16" stroke="#232F3E"></path>
                        <path d="M33.0033544,150.153846 L111.329919,150.153846 L111.329919,162.291297 C94.008555,158.24548 80.9541276,156.222572 72.1666366,156.222572 C63.3791456,156.222572 50.3247182,158.24548 33.0033544,162.291297" id="Path-17" stroke="#232F3E" fill="#FFFFFF" stroke-linejoin="round"></path>
                        <polygon id="Rectangle-5" stroke="#232F3E" fill="#FFFFFF" stroke-linejoin="round" points="56.5771789 148.980769 88.4018421 148.980769 88.4018421 183 56.5771789 183"></polygon>
                        <path d="M10.1547033,19.7660994 C13.3721196,19.3137077 16.4558318,19.0875118 19.4058399,19.0875118 C22.3558511,19.0875118 25.4395667,19.3137081 28.6569867,19.7661008 L28.6569854,19.7661103 C31.1251426,20.1131512 32.960789,22.2249599 32.960789,24.7173958 L32.9607969,62.1097045 C32.9607969,64.599152 31.1294383,66.7093881 28.6647905,67.0599025 C25.9620875,67.4442723 23.0307808,67.6364573 19.8708704,67.6364573 C16.5232168,67.6364573 13.2884206,67.4207569 10.166482,66.9893562 L10.1664812,66.9893619 C7.69302357,66.6475706 5.85089079,64.533381 5.85089079,62.0364201 L5.85089092,24.7173943 C5.85089092,22.2249534 7.68654121,20.1131407 10.1547033,19.7660994 Z" id="Rectangle-6" stroke="#527FFF" fill="#FFFFFF" stroke-linejoin="round" transform="translate(19.405844, 43.361985) rotate(-15.000000) translate(-19.405844, -43.361985) "></path>
                        <g id="Group-2" transform="translate(20.159096, 44.449395) rotate(-15.000000) translate(-20.159096, -44.449395) translate(6.159096, 22.449395)" stroke="#527FFF" stroke-dasharray="4" stroke-linecap="round">
                            <path d="M0.589345614,7.625 L11.1975667,0.586538462" id="Line-6"></path>
                            <path d="M15.9123316,12.3173077 L26.5205526,5.27884615" id="Line-6" transform="translate(21.216442, 8.798077) scale(-1, 1) translate(-21.216442, -8.798077) "></path>
                            <path d="M0.589345614,17.0096154 L11.1975667,9.97115385" id="Line-6"></path>
                            <path d="M15.9123316,21.7019231 L26.5205526,14.6634615" id="Line-6" transform="translate(21.216442, 18.182692) scale(-1, 1) translate(-21.216442, -18.182692) "></path>
                            <path d="M0.589345614,26.3942308 L11.1975667,19.3557692" id="Line-6"></path>
                            <path d="M15.9123316,31.0865385 L26.5205526,24.0480769" id="Line-6" transform="translate(21.216442, 27.567308) scale(-1, 1) translate(-21.216442, -27.567308) "></path>
                            <path d="M0.589345614,38.125 L11.1975667,31.0865385" id="Line-6"></path>
                            <path d="M7.07214736,43.4038462 L11.1975667,40.4711538" id="Line-6"></path>
                            <path d="M22.3951333,3.51923077 L26.5205526,0.586538462" id="Line-6" transform="translate(24.752516, 1.759615) scale(-1, 1) translate(-24.752516, -1.759615) "></path>
                            <path d="M15.322986,42.2307692 L25.3418614,35.7788462" id="Line-6" transform="translate(20.627096, 38.711538) scale(-1, 1) translate(-20.627096, -38.711538) "></path>
                        </g>
                        <path d="M116.236914,19.7660994 C119.45433,19.3137077 122.538042,19.0875118 125.48805,19.0875118 C128.438062,19.0875118 131.521777,19.3137081 134.739197,19.7661008 L134.739196,19.7661103 C137.207353,20.1131512 139.042999,22.2249599 139.042999,24.7173958 L139.043007,62.1097045 C139.043007,64.599152 137.211649,66.7093881 134.747001,67.0599025 C132.044298,67.4442723 129.112991,67.6364573 125.953081,67.6364573 C122.605427,67.6364573 119.370631,67.4207569 116.248692,66.9893562 L116.248692,66.9893619 C113.775234,66.6475706 111.933101,64.533381 111.933101,62.0364201 L111.933101,24.7173943 C111.933101,22.2249534 113.768752,20.1131407 116.236914,19.7660994 Z" id="Rectangle-6" stroke="#527FFF" fill="#FFFFFF" stroke-linejoin="round" transform="translate(125.488054, 43.361985) rotate(-15.000000) translate(-125.488054, -43.361985) "></path>
                        <g id="Group-2" transform="translate(126.241307, 44.449395) rotate(-15.000000) translate(-126.241307, -44.449395) translate(112.241307, 22.449395)" stroke="#527FFF" stroke-dasharray="4" stroke-linecap="round">
                            <path d="M0.589345614,7.625 L11.1975667,0.586538462" id="Line-6"></path>
                            <path d="M15.9123316,12.3173077 L26.5205526,5.27884615" id="Line-6" transform="translate(21.216442, 8.798077) scale(-1, 1) translate(-21.216442, -8.798077) "></path>
                            <path d="M0.589345614,17.0096154 L11.1975667,9.97115385" id="Line-6"></path>
                            <path d="M15.9123316,21.7019231 L26.5205526,14.6634615" id="Line-6" transform="translate(21.216442, 18.182692) scale(-1, 1) translate(-21.216442, -18.182692) "></path>
                            <path d="M0.589345614,26.3942308 L11.1975667,19.3557692" id="Line-6"></path>
                            <path d="M15.9123316,31.0865385 L26.5205526,24.0480769" id="Line-6" transform="translate(21.216442, 27.567308) scale(-1, 1) translate(-21.216442, -27.567308) "></path>
                            <path d="M0.589345614,38.125 L11.1975667,31.0865385" id="Line-6"></path>
                            <path d="M7.07214736,43.4038462 L11.1975667,40.4711538" id="Line-6"></path>
                            <path d="M22.3951333,3.51923077 L26.5205526,0.586538462" id="Line-6" transform="translate(24.752516, 1.759615) scale(-1, 1) translate(-24.752516, -1.759615) "></path>
                            <path d="M15.322986,42.2307692 L25.3418614,35.7788462" id="Line-6" transform="translate(20.627096, 38.711538) scale(-1, 1) translate(-20.627096, -38.711538) "></path>
                        </g>
                        <g id="Group-7" transform="translate(111.975667, 132.557692)" stroke="#232F3E">
                            <path d="M4.30381251,0.678587629 C7.52122883,0.226195876 10.604941,6.28372263e-16 13.5549491,0 C16.5049603,0 19.5886759,0.226196356 22.806096,0.678589068 L22.8060946,0.678598525 C25.2742518,1.02563941 27.1098982,3.13744808 27.1098982,5.62988405 L27.1099061,43.0221927 C27.1099061,45.5116402 25.2785475,47.6218763 22.8138997,47.9723907 C20.1111967,48.3567606 17.17989,48.5489455 14.0199796,48.5489455 C10.672326,48.5489455 7.43752984,48.3332452 4.31559122,47.9018445 L4.31559043,47.9018501 C1.84213278,47.5600589 -1.11282934e-12,45.4458692 -1.11313513e-12,42.9489083 L1.33030477e-07,5.62988258 C1.33030477e-07,3.13744165 1.83565041,1.02562888 4.30381251,0.678587629 Z" id="Rectangle-6" fill="#FFFFFF" stroke-linejoin="round"></path>
                            <g id="Group-2" transform="translate(0.000000, 3.519231)" stroke-dasharray="4" stroke-linecap="round">
                                <path d="M0.589345614,7.625 L11.1975667,0.586538462" id="Line-6"></path>
                                <path d="M15.9123316,12.3173077 L26.5205526,5.27884615" id="Line-6" transform="translate(21.216442, 8.798077) scale(-1, 1) translate(-21.216442, -8.798077) "></path>
                                <path d="M0.589345614,17.0096154 L11.1975667,9.97115385" id="Line-6"></path>
                                <path d="M15.9123316,21.7019231 L26.5205526,14.6634615" id="Line-6" transform="translate(21.216442, 18.182692) scale(-1, 1) translate(-21.216442, -18.182692) "></path>
                                <path d="M0.589345614,26.3942308 L11.1975667,19.3557692" id="Line-6"></path>
                                <path d="M15.9123316,31.0865385 L26.5205526,24.0480769" id="Line-6" transform="translate(21.216442, 27.567308) scale(-1, 1) translate(-21.216442, -27.567308) "></path>
                                <path d="M0.589345614,38.125 L11.1975667,31.0865385" id="Line-6"></path>
                                <path d="M7.07214736,43.4038462 L11.1975667,40.4711538" id="Line-6"></path>
                                <path d="M22.3951333,3.51923077 L26.5205526,0.586538462" id="Line-6" transform="translate(24.752516, 1.759615) scale(-1, 1) translate(-24.752516, -1.759615) "></path>
                                <path d="M15.322986,42.2307692 L25.3418614,35.7788462" id="Line-6" transform="translate(20.627096, 38.711538) scale(-1, 1) translate(-20.627096, -38.711538) "></path>
                            </g>
                        </g>
                        <polygon id="Rectangle-5" stroke="#232F3E" fill="#FFFFFF" stroke-linejoin="round" points="41.254193 16.4230769 103.724828 16.4230769 103.724828 48.0961538 41.254193 48.0961538"></polygon>
                        <polygon id="Rectangle-5" stroke="#232F3E" fill="#FFFFFF" stroke-linejoin="round" points="37.7181193 48.0961538 107.260902 48.0961538 107.260902 157.192308 37.7181193 157.192308"></polygon>
                        <polygon id="Rectangle-5" stroke="#232F3E" fill="#FFFFFF" stroke-linejoin="round" points="45.9689579 56.3076923 99.0100631 56.3076923 99.0100631 130.211538 45.9689579 130.211538"></polygon>
                        <polygon id="Rectangle-5" stroke="#232F3E" fill="#FFFFFF" stroke-linejoin="round" points="30.6459719 56.3076923 41.254193 56.3076923 41.254193 87.9807692 30.6459719 87.9807692"></polygon>
                        <polygon id="Rectangle-5" stroke="#232F3E" fill="#FFFFFF" stroke-linejoin="round" points="35.3607368 87.9807692 45.9689579 87.9807692 45.9689579 127.865385 35.3607368 127.865385"></polygon>
                        <polygon id="Rectangle-5" stroke="#232F3E" fill="#FFFFFF" stroke-linejoin="round" points="99.0100631 87.9807692 109.618284 87.9807692 109.618284 127.865385 99.0100631 127.865385"></polygon>
                        <polygon id="Rectangle-5" stroke="#232F3E" fill="#FFFFFF" stroke-linejoin="round" points="109.618284 116.134615 120.226505 116.134615 120.226505 122 109.618284 122"></polygon>
                        <polygon id="Rectangle-5" stroke="#232F3E" fill="#FFFFFF" stroke-linejoin="round" transform="translate(86.044460, 135.313392) rotate(-270.000000) translate(-86.044460, -135.313392) " points="82.09688 131.794161 89.9920393 131.794161 89.9920393 138.832623 82.09688 138.832623"></polygon>
                        <polygon id="Rectangle-5" stroke="#232F3E" fill="#FFFFFF" stroke-linejoin="round" points="103.724828 56.3076923 114.333049 56.3076923 114.333049 87.9807692 103.724828 87.9807692"></polygon>
                        <polygon id="Rectangle-5" stroke="#232F3E" fill="#FFFFFF" stroke-linejoin="round" transform="translate(38.307465, 23.461538) scale(-1, 1) translate(-38.307465, -23.461538) " points="35.3607368 18.7692308 41.254193 18.7692308 41.254193 26.1387658 35.3607368 28.1538462"></polygon>
                        <polygon id="Rectangle-5" stroke="#232F3E" fill="#FFFFFF" stroke-linejoin="round" transform="translate(106.671556, 23.461538) scale(-1, 1) translate(-106.671556, -23.461538) " points="103.724828 18.7692308 109.618284 18.7692308 109.618284 28.1538462 103.724828 24.8860708"></polygon>
                        <path d="M59.7558701,0 L85.2231508,0 C86.3277203,-2.16501571e-15 87.2231508,0.8954305 87.2231508,2 L87.2231508,37.2980769 C87.2231508,38.4026464 86.3277203,39.2980769 85.2231508,39.2980769 L59.7558701,39.2980769 C58.6513006,39.2980769 57.7558701,38.4026464 57.7558701,37.2980769 L57.7558701,2 C57.7558701,0.8954305 58.6513006,2.02906125e-16 59.7558701,0 Z" id="Rectangle" stroke="#232F3E" fill="#FFFFFF" stroke-linejoin="round" transform="translate(72.489510, 19.649038) rotate(-360.000000) translate(-72.489510, -19.649038) "></path>
                        <path d="M57.7558701,30.5 L87.0312106,30.5" id="Path-12" stroke="#232F3E"></path>
                        <path d="M89.5805333,134.903846 L107.690432,134.903846 C112.660994,134.903846 116.690432,130.874409 116.690432,125.903846 L116.690432,122" id="Path-14" stroke="#232F3E"></path>
                        <g id="Group-7" transform="translate(5.893456, 132.557692)" stroke="#232F3E">
                            <path d="M4.30381251,0.678587629 C7.52122883,0.226195876 10.604941,6.28372263e-16 13.5549491,0 C16.5049603,0 19.5886759,0.226196356 22.806096,0.678589068 L22.8060946,0.678598525 C25.2742518,1.02563941 27.1098982,3.13744808 27.1098982,5.62988405 L27.1099061,43.0221927 C27.1099061,45.5116402 25.2785475,47.6218763 22.8138997,47.9723907 C20.1111967,48.3567606 17.17989,48.5489455 14.0199796,48.5489455 C10.672326,48.5489455 7.43752984,48.3332452 4.31559122,47.9018445 L4.31559043,47.9018501 C1.84213278,47.5600589 -9.93732146e-13,45.4458692 -9.94037935e-13,42.9489083 L1.33030595e-07,5.62988258 C1.33030595e-07,3.13744165 1.83565041,1.02562888 4.30381251,0.678587629 Z" id="Rectangle-6" fill="#FFFFFF" stroke-linejoin="round"></path>
                            <g id="Group-2" transform="translate(0.000000, 3.519231)" stroke-dasharray="4" stroke-linecap="round">
                                <path d="M0.589345614,7.625 L11.1975667,0.586538462" id="Line-6"></path>
                                <path d="M15.9123316,12.3173077 L26.5205526,5.27884615" id="Line-6" transform="translate(21.216442, 8.798077) scale(-1, 1) translate(-21.216442, -8.798077) "></path>
                                <path d="M0.589345614,17.0096154 L11.1975667,9.97115385" id="Line-6"></path>
                                <path d="M15.9123316,21.7019231 L26.5205526,14.6634615" id="Line-6" transform="translate(21.216442, 18.182692) scale(-1, 1) translate(-21.216442, -18.182692) "></path>
                                <path d="M0.589345614,26.3942308 L11.1975667,19.3557692" id="Line-6"></path>
                                <path d="M15.9123316,31.0865385 L26.5205526,24.0480769" id="Line-6" transform="translate(21.216442, 27.567308) scale(-1, 1) translate(-21.216442, -27.567308) "></path>
                                <path d="M0.589345614,38.125 L11.1975667,31.0865385" id="Line-6"></path>
                                <path d="M7.07214736,43.4038462 L11.1975667,40.4711538" id="Line-6"></path>
                                <path d="M22.3951333,3.51923077 L26.5205526,0.586538462" id="Line-6" transform="translate(24.752516, 1.759615) scale(-1, 1) translate(-24.752516, -1.759615) "></path>
                                <path d="M15.322986,42.2307692 L25.3418614,35.7788462" id="Line-6" transform="translate(20.627096, 38.711538) scale(-1, 1) translate(-20.627096, -38.711538) "></path>
                            </g>
                        </g>
                    </g>
                    <g id="Group-14" transform="translate(38.400147, 38.373450) rotate(-23.000000) translate(-38.400147, -38.373450) translate(14.400147, 6.873450)" stroke="#527FFF" stroke-linejoin="round">
                        <g id="Group" transform="translate(0.439340, 0.625631)">
                            <polyline id="Shape" points="0.125373821 23.5945946 24.6857603 0.387387387 24.6857603 61.7351351"></polyline>
                            <path d="M46.8500115,23.5945946 L24.6857603,0.387387387" id="Shape"></path>
                        </g>
                    </g>
                </g>
            </g>
        </g>
    </g>
</svg>